<svg width="30" height="25" viewBox="0 0 30 25" fill="none" xmlns="http://www.w3.org/2000/svg">
<path d="M29.7 0H0.3C0.135 0 0 0.127042 0 0.282315V2.54084C0 2.69611 0.135 2.82315 0.3 2.82315H29.7C29.865 2.82315 30 2.69611 30 2.54084V0.282315C30 0.127042 29.865 0 29.7 0ZM29.7 22.0206H0.3C0.135 22.0206 0 22.1476 0 22.3029V24.5614C0 24.7167 0.135 24.8438 0.3 24.8438H29.7C29.865 24.8438 30 24.7167 30 24.5614V22.3029C30 22.1476 29.865 22.0206 29.7 22.0206ZM29.7 11.0103H0.3C0.135 11.0103 0 11.1373 0 11.2926V13.5511C0 13.7064 0.135 13.8335 0.3 13.8335H29.7C29.865 13.8335 30 13.7064 30 13.5511V11.2926C30 11.1373 29.865 11.0103 29.7 11.0103Z" fill="#23BEB6"/>
</svg>
